<svg width="1336" height="1104" viewBox="0 0 1336 1104" xmlns="http://www.w3.org/2000/svg" xmlns:xlink="http://www.w3.org/1999/xlink">
    <path id="Path-copy-22" fill="#f2f2f2" stroke="none" d="M 1135.156982 629.648193 C 1133.964233 631.941528 1132.719604 634.195557 1131.435303 636.436523 C 1082.186646 722.234985 967.622742 775.519958 774.415344 747.318054 C 664.713379 730.543701 617.994202 792.071716 572.755737 855.093628 C 571.982117 856.181335 571.209045 857.269043 570.422668 858.356812 C 523.048157 924.445313 476.145294 990.717407 358.868927 968.687866 C 234.541565 949.030396 157.811996 848.082397 145.938797 740.306763 C 145.794189 738.996277 145.663635 737.672729 145.545258 736.362183 C 138.875 666.486206 159.489197 594.133484 212.079422 539.511841 C 243.846252 506.52655 288.979828 489.005188 335.567841 489.555542 C 349.595001 489.816833 363.616211 488.7771 377.451385 486.449707 C 380.505005 485.912415 383.467041 485.322693 386.349762 484.654297 C 445.702393 471.090637 473.052765 430.766541 489.826843 381.557251 C 490.220398 380.390869 490.613281 379.224548 490.993378 378.045105 C 529.509155 260.689758 511.699036 95.972961 721.091187 120.204102 C 908.466492 134.016785 1045.977661 237.913269 1113.428711 357.784729 C 1114.097412 358.990356 1114.765503 360.196106 1115.420776 361.401733 C 1133.959839 394.66217 1147.189331 430.614502 1154.630737 467.958557 C 1155.050537 470.055298 1155.430664 472.152161 1155.784546 474.248962 C 1165.324707 529.919006 1159.073486 584.029663 1135.156982 629.648193 Z"/>
    <path id="Path-copy-21" fill="#ffffff" stroke="none" d="M 1115.420776 361.401794 C 1101.977295 377.378662 1086.830078 391.840515 1070.248169 404.530273 C 1005.653503 454.067261 923.838806 480.932617 843.125244 486.567688 C 801.645386 489.483704 759.961426 486.652466 719.256775 478.154236 C 677.844727 469.478699 638.34613 454.198303 600.092651 436.349182 C 562.88739 418.985046 526.783386 399.406189 489.826996 381.55719 C 490.22049 380.390808 490.613403 379.224487 490.99353 378.045044 C 531.291443 397.44043 570.763855 418.814697 611.533386 437.292786 C 649.944214 454.709351 689.70459 468.9151 731.286743 476.515991 C 772.775574 484.047852 815.117615 485.706604 857.068542 481.443542 C 937.560059 473.344666 1019.440063 443.648743 1081.321533 390.521057 C 1092.940308 380.547058 1103.682129 369.594849 1113.428833 357.784729 C 1114.097412 358.990417 1114.765503 360.196106 1115.420776 361.401794 Z"/>
    <path id="Path-copy-20" fill="#ffffff" stroke="none" d="M 1155.784546 474.248962 C 1137.804199 506.133484 1112.419678 534.256836 1083.353149 556.548401 C 1018.758545 606.085388 936.943726 632.950684 856.230225 638.585815 C 814.750305 641.50177 773.066345 638.670532 732.361755 630.172302 C 690.949707 621.496765 651.451111 606.216309 613.197632 588.367249 C 574.249878 570.190613 536.494263 549.576416 497.716156 531.059082 C 458.978271 512.554749 419.164795 496.776367 377.451447 486.449646 C 380.505005 485.912354 383.467102 485.322632 386.349823 484.654236 C 389.075745 485.361877 391.792938 486.095703 394.501404 486.855835 C 476.06665 509.65863 548.052734 554.595642 624.638306 589.310791 C 663.049194 606.727417 702.809509 620.933167 744.391663 628.534058 C 785.880554 636.065918 828.222595 637.72467 870.173523 633.461609 C 950.665039 625.362671 1032.545044 595.666748 1094.426514 542.539063 C 1118.920044 521.602295 1139.331299 496.317078 1154.630859 467.958557 C 1155.050659 470.055298 1155.430664 472.152222 1155.784546 474.248962 Z"/>
    <path id="Path-copy-19" fill="#ffffff" stroke="none" d="M 346.012817 754.19812 C 426.372498 776.660156 497.428162 820.614258 572.755737 855.093628 C 571.982117 856.181335 571.209045 857.269043 570.422729 858.356812 C 568.50946 857.47876 566.609558 856.600708 564.709106 855.709595 C 525.761353 837.532959 488.005737 816.918701 449.227539 798.401367 C 409.663574 779.503906 368.985657 763.450317 326.302856 753.136597 C 267.303131 738.925415 206.356094 734.590088 145.938797 740.306885 C 145.794189 738.996338 145.663635 737.672729 145.545258 736.362183 C 212.896255 730.004639 280.842163 736.049805 346.012817 754.19812 Z"/>
    <path id="Path-copy-18" fill="#cccccc" stroke="none" d="M 1067.492065 188.101196 L 1067.492065 188.101196 C 1058.113403 188.856689 1049.898071 181.866272 1049.142578 172.48761 C 1048.387085 163.109009 1055.377441 154.893738 1064.755981 154.138123 C 1074.134644 153.382629 1082.349976 160.373047 1083.105591 169.751648 C 1083.861084 179.13031 1076.870605 187.345581 1067.492065 188.101196 Z M 1067.281616 185.488647 L 1067.281616 185.488647 C 1075.217285 184.849304 1081.132324 177.897888 1080.493042 169.962097 C 1079.85376 162.026306 1072.902344 156.111389 1064.966553 156.750671 C 1057.030762 157.389893 1051.115845 164.341431 1051.755127 172.2771 C 1052.062012 176.088074 1053.870361 179.620911 1056.782104 182.098511 C 1059.693848 184.576233 1063.470703 185.795715 1067.281616 185.488647 Z"/>
    <path id="Path-copy-17" fill="#cccccc" stroke="none" d="M 1136.639404 133.902954 C 1136.639404 139.693115 1131.945557 144.386963 1126.155396 144.386963 C 1120.365234 144.386963 1115.671387 139.693115 1115.671387 133.902954 C 1115.671387 128.112793 1120.365234 123.419006 1126.155396 123.419006 C 1131.945557 123.419006 1136.639404 128.112793 1136.639404 133.902954 Z"/>
    <path id="Path-copy-16" fill="#cccccc" stroke="none" d="M 987.441956 523.432373 C 982.254944 531.282471 971.686279 533.441345 963.836182 528.254333 C 955.986084 523.067322 953.827148 512.498657 959.014282 504.64856 C 964.201294 496.798401 974.769958 494.639587 982.620056 499.826599 L 982.620056 499.826599 C 990.460815 505.019958 992.617981 515.580139 987.441956 523.432373 Z M 961.200989 506.093445 C 956.811951 512.735901 958.638733 521.678589 965.281067 526.067627 C 971.923462 530.456665 980.866272 528.629883 985.255188 521.987488 C 989.644226 515.345093 987.817505 506.402344 981.175049 502.013367 L 981.175049 502.013367 C 974.530884 497.633911 965.595459 499.459106 961.200989 506.093445 Z"/>
    <path id="Path-copy-15" fill="#cccccc" stroke="none" d="M 1018.33551 575.603943 C 1018.33551 581.394104 1013.641663 586.088013 1007.851501 586.088013 C 1002.06134 586.088013 997.367432 581.394104 997.367432 575.603943 C 997.367432 569.813782 1002.06134 565.119995 1007.851501 565.119995 C 1013.641663 565.119995 1018.33551 569.813782 1018.33551 575.603943 Z"/>
    <path id="Path-copy-14" fill="#cccccc" stroke="none" d="M 1042.602783 629.319092 C 1042.602783 632.360596 1040.137085 634.826172 1037.095581 634.826172 C 1034.054077 634.826172 1031.588379 632.360596 1031.588379 629.319092 C 1031.588379 626.277588 1034.054077 623.811951 1037.095581 623.811951 C 1040.137085 623.811951 1042.602783 626.277588 1042.602783 629.319092 Z"/>
    <path id="Path-copy-13" fill="#cccccc" stroke="none" d="M 564.416504 237.301819 C 560.229309 228.875854 563.665466 218.650879 572.091431 214.463684 C 580.517395 210.276489 590.742371 213.712708 594.929565 222.138672 C 599.116699 230.564636 595.680542 240.789612 587.254578 244.976746 L 587.254578 244.976746 C 578.827881 249.15271 568.611084 245.719238 564.416504 237.301819 Z M 592.582397 223.305054 C 589.987732 218.083679 584.503235 214.939392 578.68634 215.338501 C 572.869568 215.737549 567.865845 219.601257 566.008484 225.128052 C 564.151062 230.654846 565.805908 236.756287 570.201233 240.587219 C 574.596619 244.418213 580.866882 245.224304 586.088196 242.629517 L 586.088196 242.629517 C 593.210449 239.0802 596.115601 230.435364 592.582397 223.305054 Z"/>
    <path id="Path-copy-12" fill="#cccccc" stroke="none" d="M 519.531555 228.774841 C 519.531555 234.565002 514.837708 239.258789 509.047577 239.258789 C 503.257416 239.258789 498.563538 234.565002 498.563538 228.774841 C 498.563538 222.98468 503.257416 218.290771 509.047577 218.290771 C 514.837708 218.290771 519.531555 222.98468 519.531555 228.774841 Z"/>
    <path id="Path-copy-11" fill="#cccccc" stroke="none" d="M 453.417419 227.114868 C 453.417419 230.156372 450.951782 232.622009 447.910278 232.622009 C 444.868774 232.622009 442.403137 230.156372 442.403137 227.114868 C 442.403137 224.073364 444.868774 221.607727 447.910278 221.607727 C 450.951782 221.607727 453.417419 224.073364 453.417419 227.114868 Z"/>
    <path id="Path" fill="#ffffff" stroke="none" d="M 475.337585 307.557617 C 475.337585 308.753967 474.367737 309.723816 473.171387 309.723816 C 471.975037 309.723816 471.005188 308.753967 471.005188 307.557617 C 471.005188 306.361267 471.975037 305.391418 473.171387 305.391418 C 474.367737 305.391418 475.337585 306.361267 475.337585 307.557617 Z"/>
    <path id="b85ae1dc-b170-4f54-a6de-4a72451950d7-copy" fill="#e6e6e6" stroke="none" d="M 442.25235 348.18927 L 913 348.18927 L 913 655.850098 L 442.25235 655.850098 Z"/>
    <path id="f015ec3e-20cc-40e8-8473-d753a9bdb685-copy" fill="#ffffff" stroke="none" d="M 463 374.571716 L 886 374.571716 L 886 631.262695 L 463 631.262695 Z"/>
    <path id="Path-copy-6" fill="#cccccc" stroke="none" d="M 745.883179 680.015503 L 664.813171 680.015503 C 662.379761 680.015503 660.407166 678.042847 660.407166 675.609497 C 660.407166 673.176147 662.379761 671.203491 664.813171 671.203491 L 745.883179 671.203491 C 748.316528 671.203491 750.289124 673.176147 750.289124 675.609497 C 750.289124 678.042847 748.316528 680.015503 745.883179 680.015503 Z"/>
    <path id="Path-copy-5" fill="#3f3d56" stroke="none" d="M 640.580261 684.421387 C 635.470276 684.421387 631.327759 680.278931 631.327759 675.168945 C 631.327759 670.058838 635.470276 665.916382 640.580261 665.916382 C 645.690308 665.916382 649.832825 670.058838 649.832825 675.168945 C 649.827026 680.276489 645.687927 684.415649 640.580261 684.421387 Z"/>
    <path id="Path-copy-4" fill="#cccccc" stroke="none" d="M 745.883179 706.451294 L 664.813171 706.451294 C 662.379761 706.451294 660.407166 704.47876 660.407166 702.045288 C 660.407166 699.611938 662.379761 697.639282 664.813171 697.639282 L 745.883179 697.639282 C 748.316528 697.639282 750.289124 699.611938 750.289124 702.045288 C 750.289124 704.47876 748.316528 706.451294 745.883179 706.451294 Z"/>
    <path id="Path-copy-3" fill="#3f3d56" stroke="none" d="M 640.580261 710.8573 C 636.837952 710.8573 633.464172 708.603027 632.032043 705.145508 C 630.599915 701.68811 631.391541 697.708374 634.03772 695.062256 C 636.68396 692.416016 640.663635 691.62439 644.121094 693.056519 C 647.578552 694.488647 649.832825 697.862427 649.832825 701.604736 C 649.827026 706.712402 645.687927 710.851563 640.580261 710.8573 Z"/>
    <path id="Path-copy-2" fill="#cccccc" stroke="none" d="M 745.883179 732.887207 L 664.813171 732.887207 C 662.379761 732.887207 660.407166 730.914551 660.407166 728.481201 C 660.407166 726.047852 662.379761 724.075195 664.813171 724.075195 L 745.883179 724.075195 C 748.316528 724.075195 750.289124 726.047852 750.289124 728.481201 C 750.289124 730.914551 748.316528 732.887207 745.883179 732.887207 Z"/>
    <path id="Path-copy-1" fill="#3f3d56" stroke="none" d="M 640.580261 737.293213 C 635.470276 737.293213 631.327759 733.150635 631.327759 728.040649 C 631.327759 722.930542 635.470276 718.788086 640.580261 718.788086 C 645.690308 718.788086 649.832825 722.930542 649.832825 728.040649 C 649.827026 733.148315 645.687927 737.287354 640.580261 737.293213 Z"/>
    <path id="Path-copy" fill="#3f3d56" stroke="none" d="M 769.175476 701.926514 L 802.66095 701.926514 C 803.147583 701.926514 803.542114 701.531982 803.542114 701.04541 L 803.542114 494.034241 C 803.542114 493.547607 803.147583 493.153076 802.66095 493.153076 C 802.174255 493.153076 801.779724 493.547607 801.779724 494.034241 L 801.779724 700.164185 L 769.175476 700.164185 C 768.859985 700.163086 768.567932 700.330811 768.409912 700.603882 C 768.251831 700.876953 768.251831 701.213745 768.409912 701.486816 C 768.567932 701.759888 768.859985 701.927612 769.175476 701.926514 Z"/>
    <path id="b0cf38c7-358d-48dc-a444-e9782686dfa5-593-copy" fill="#e6e6e6" stroke="none" d="M 422.384827 763.912109 C 430.363525 766.716797 439.227356 765.155396 445.767517 759.793335 C 453.957275 752.918945 456.525513 741.597412 458.614227 731.11145 L 464.793945 700.094849 L 451.856262 709.003296 C 442.551605 715.409668 433.037994 722.021973 426.59613 731.301147 C 420.154297 740.580322 417.343903 753.248169 422.518219 763.289063"/>
    <path id="acbbaa8b-0bc2-4bc9-96d7-93dd88f90f19-594-copy" fill="#f2f2f2" stroke="none" d="M 424.382538 803.622681 C 422.75415 791.759033 421.078735 779.741943 422.223694 767.751099 C 423.238373 757.101685 426.487427 746.702271 433.10202 738.171631 C 436.613007 733.653076 440.885254 729.781616 445.726654 726.731323 C 446.988831 725.934814 448.150757 727.934814 446.894012 728.728271 C 438.516815 734.022217 432.037262 741.839844 428.389557 751.053833 C 424.360962 761.299927 423.714081 772.469727 424.40802 783.354126 C 424.827423 789.936279 425.71875 796.475342 426.613892 803.006714 C 426.760529 803.619507 426.407379 804.241211 425.805878 804.429199 C 425.19043 804.594971 424.556152 804.234619 424.383362 803.621216 Z"/>
    <path id="bed63620-84ae-4c66-a7c8-0d9b30f8c1e7-595-copy" fill="#e6e6e6" stroke="none" d="M 436.103577 784.586304 C 439.524963 789.788208 445.41272 792.828003 451.63501 792.604858 C 459.49939 792.231689 466.05307 786.745117 471.952118 781.534546 L 489.404144 766.125732 L 477.854248 765.572998 C 469.548065 765.175171 461.027527 764.802002 453.116119 767.366333 C 445.204712 769.930786 437.908539 776.092773 436.462128 784.281738"/>
    <path id="fc4eb8ca-daad-4589-b224-2c71eec1c546-596-copy" fill="#f2f2f2" stroke="none" d="M 419.779572 810.442383 C 427.619263 796.570923 436.711914 781.154419 452.960358 776.226929 C 457.477814 774.861572 462.214661 774.372437 466.915802 774.785889 C 468.397705 774.913818 468.027588 777.197632 466.548798 777.070435 C 458.668335 776.416138 450.803101 778.496948 444.277161 782.962524 C 437.997223 787.237061 433.107422 793.180054 428.96936 799.481567 C 426.434265 803.342163 424.163605 807.366089 421.892944 811.384644 C 421.167389 812.669067 419.045563 811.741577 419.779572 810.442383 Z"/>
    <path id="ec83fa9a-7bb4-4b90-a90b-e1cec4444963-597-copy" fill="#e6e6e6" stroke="none" d="M 1021.857117 780.426758 C 1017.219849 784.581543 1010.750732 786.015625 1004.792114 784.209595 C 997.284302 781.838867 992.350525 774.859497 987.979126 768.314331 L 975.044861 748.957031 L 986.352478 751.37439 C 994.484436 753.112671 1002.817383 754.929565 1009.810669 759.430786 C 1016.803894 763.932007 1022.282898 771.754028 1021.588379 780.040771"/>
    <path id="e32935a9-e392-46b4-9a67-68c65f1cc9fa-598-copy" fill="#f2f2f2" stroke="none" d="M 1031.030762 809.596313 C 1026.996582 794.181885 1022.146118 776.953491 1007.696655 768.036865 C 1003.678162 765.562256 999.223633 763.878784 994.572998 763.076904 C 993.107605 762.821899 992.881714 765.12439 994.343933 765.379395 C 1002.129883 766.760864 1009.202087 770.782837 1014.369995 776.767944 C 1019.348877 782.505615 1022.557434 789.500977 1024.94751 796.650757 C 1026.411743 801.031006 1027.578491 805.501587 1028.746704 809.967041 C 1029.119873 811.394287 1031.408325 811.039795 1031.030762 809.596313 Z"/>
    <path id="Path-copy-7" fill="#cbcbcb" stroke="none" d="M 1067.046509 812 L 167.953445 812 C 167.426865 812 167 811.776123 167 811.5 C 167 811.223877 167.426865 811 167.953445 811 L 1067.046509 811 C 1067.57312 811 1068 811.223877 1068 811.5 C 1068 811.776123 1067.57312 812 1067.046509 812 Z"/>
    <path id="Path-copy-10" fill="#3f3d56" stroke="none" d="M 473.38501 479.435913 L 471.38501 479.435913 L 471.38501 402.392944 L 616.041992 402.392944 L 616.041992 404.392944 L 473.38501 404.392944 L 473.38501 479.435913 Z"/>
    <path id="Path-copy-9" fill="#2254c5" stroke="none" d="M 666.004944 397.575928 C 666.004944 412.918396 653.567444 425.355896 638.224976 425.355896 C 622.882507 425.355896 610.444946 412.918396 610.444946 397.575928 C 610.444946 382.233459 622.882507 369.795959 638.224976 369.795959 C 653.567444 369.795959 666.004944 382.233459 666.004944 397.575928 Z"/>
    <path id="Path-copy-8" fill="#ffffff" stroke="none" d="M 634.435181 412.03418 C 633.462585 412.03418 632.546692 411.57605 631.963318 410.797852 L 624.384521 400.692566 C 623.360596 399.327271 623.63739 397.390381 625.002686 396.366516 C 626.367981 395.34259 628.304871 395.619324 629.328735 396.98468 L 634.287048 403.595215 L 647.021851 384.493286 C 647.633789 383.573608 648.690125 383.050476 649.792542 383.121277 C 650.894958 383.192017 651.875793 383.845886 652.365112 384.836304 C 652.854431 385.82666 652.777893 387.002991 652.164246 387.92157 L 637.006653 410.65802 C 636.450256 411.492371 635.523682 412.005066 634.521179 412.033142 C 634.492554 412.03363 634.463867 412.03418 634.435181 412.03418 Z"/>
    <path id="ed585d6d-4c60-4aae-9dcd-e3012a759289-copy" fill="#2254c5" stroke="none" d="M 441.975861 330.413879 L 913 330.413879 L 913 357.958374 L 441.975861 357.958374 Z"/>
    <path id="b43fe0fb-7393-4bbe-8dcd-48ed75608891-copy" fill="#ffffff" stroke="none" d="M 467.55014 343.15448 C 467.55014 345.97406 465.264435 348.259766 462.444885 348.259766 C 459.625305 348.259766 457.3396 345.97406 457.3396 343.15448 C 457.3396 340.334961 459.625305 338.049255 462.444885 338.049255 C 465.264435 338.049255 467.55014 340.334961 467.55014 343.15448 Z"/>
    <path id="ada3e127-c3a1-446f-8730-bf32ed0f9b11-copy" fill="#ffffff" stroke="none" d="M 486.92807 343.15448 C 486.92807 345.97406 484.642365 348.259766 481.822815 348.259766 C 479.003235 348.259766 476.717529 345.97406 476.717529 343.15448 C 476.717529 340.334961 479.003235 338.049255 481.822815 338.049255 C 484.642365 338.049255 486.92807 340.334961 486.92807 343.15448 Z"/>
    <path id="e3927273-efa9-4ef7-88ca-a022a07a6d22-copy" fill="#ffffff" stroke="none" d="M 506.306915 343.15448 C 506.306915 345.97406 504.02121 348.259766 501.20163 348.259766 C 498.38208 348.259766 496.096375 345.97406 496.096375 343.15448 C 496.096375 340.334961 498.38208 338.049255 501.20163 338.049255 C 504.02121 338.049255 506.306915 340.334961 506.306915 343.15448 Z"/>
    <path id="path1" fill="#3f3d56" stroke="none" d="M 840.465332 544.809021 L 610.043701 544.809021 C 609.645447 544.80896 609.322571 544.486145 609.322571 544.087891 L 609.322571 433.64679 C 609.322571 433.248535 609.645447 432.925659 610.043701 432.925659 C 610.441956 432.925659 610.764771 433.248535 610.764771 433.64679 L 610.764771 543.36676 L 840.465332 543.36676 C 840.862549 543.368225 841.183777 543.690674 841.183777 544.087891 C 841.183777 544.485107 840.862549 544.807495 840.465332 544.809021 Z"/>
    <path id="path2" fill="#2254c5" stroke="none" d="M 659.27478 536.87677 L 638.317017 536.87677 C 637.135376 536.875488 636.177795 535.917908 636.176392 534.736328 L 636.176392 505.845947 C 636.177795 504.664307 637.135376 503.706787 638.317017 503.705505 L 659.27478 503.705505 C 660.45636 503.706787 661.414001 504.664307 661.415405 505.845947 L 661.415405 534.736328 C 661.414001 535.917908 660.45636 536.875488 659.27478 536.87677 Z"/>
    <path id="path3" fill="#2254c5" stroke="none" d="M 697.493835 536.87677 L 676.536072 536.87677 C 675.354431 536.875488 674.396851 535.917908 674.395447 534.736328 L 674.395447 478.443604 C 674.396851 477.261963 675.354431 476.304443 676.536072 476.303162 L 697.493835 476.303162 C 698.675476 476.304443 699.633057 477.261963 699.63446 478.443604 L 699.63446 534.736328 C 699.633057 535.917908 698.675476 536.875488 697.493835 536.87677 Z"/>
    <path id="path4" fill="#2254c5" stroke="none" d="M 735.712891 536.87677 L 714.755188 536.87677 C 713.573547 536.875488 712.615906 535.917908 712.614563 534.736328 L 712.614563 505.845947 C 712.615906 504.664307 713.573547 503.706787 714.755188 503.705505 L 735.712891 503.705505 C 736.894531 503.706787 737.852173 504.664307 737.853516 505.845947 L 737.853516 534.736328 C 737.852173 535.917908 736.894531 536.875488 735.712891 536.87677 Z"/>
    <path id="path5" fill="#2254c5" stroke="none" d="M 773.932007 536.876709 L 752.974243 536.876709 C 751.81958 536.901611 750.862366 535.987793 750.833618 534.833252 L 750.833618 467.529846 C 750.862366 466.375305 751.81958 465.461548 752.974243 465.486389 L 773.932007 465.486389 C 775.086609 465.461548 776.043884 466.375305 776.072632 467.529846 L 776.072632 534.833252 C 776.043823 535.987793 775.086609 536.901611 773.932007 536.876709 Z"/>
    <path id="path6" fill="#2254c5" stroke="none" d="M 812.151062 536.87677 L 791.193298 536.87677 C 790.011658 536.875488 789.054077 535.917908 789.052673 534.736328 L 789.052673 448.156799 C 789.054077 446.975159 790.011658 446.017639 791.193298 446.016296 L 812.151062 446.016296 C 813.332703 446.017639 814.290283 446.975159 814.291687 448.156799 L 814.291687 534.736328 C 814.290283 535.917908 813.332703 536.875488 812.151062 536.87677 Z"/>
    <path id="path7" fill="#3f3d56" stroke="none" d="M 654.122559 490.725403 C 654.122559 493.11499 652.185425 495.052063 649.795898 495.052063 C 647.406311 495.052063 645.469177 493.11499 645.469177 490.725403 C 645.469177 488.335815 647.406311 486.398682 649.795898 486.398682 C 652.185425 486.398682 654.122559 488.335815 654.122559 490.725403 Z"/>
    <path id="path8" fill="#3f3d56" stroke="none" d="M 692.341614 462.60199 C 692.341614 464.991516 690.404541 466.92865 688.014954 466.92865 C 685.625366 466.92865 683.688232 464.991516 683.688232 462.60199 C 683.688232 460.212402 685.625366 458.275269 688.014954 458.275269 C 690.404541 458.275269 692.341614 460.212402 692.341614 462.60199 Z"/>
    <path id="path9" fill="#3f3d56" stroke="none" d="M 730.56073 490.725403 C 730.56073 493.11499 728.623596 495.052063 726.234009 495.052063 C 723.844482 495.052063 721.907349 493.11499 721.907349 490.725403 C 721.907349 488.335815 723.844482 486.398682 726.234009 486.398682 C 728.623596 486.398682 730.56073 488.335815 730.56073 490.725403 Z"/>
    <path id="path10" fill="#3f3d56" stroke="none" d="M 768.779785 448.900757 C 768.779785 451.290344 766.842651 453.227478 764.453125 453.227478 C 762.063538 453.227478 760.126404 451.290344 760.126404 448.900757 C 760.126404 446.51123 762.063538 444.574097 764.453125 444.574097 C 766.842651 444.574097 768.779785 446.51123 768.779785 448.900757 Z"/>
    <path id="path11" fill="#3f3d56" stroke="none" d="M 806.99884 433.036255 C 806.99884 435.425781 805.061768 437.362915 802.67218 437.362915 C 800.282593 437.362915 798.34552 435.425781 798.34552 433.036255 C 798.34552 430.646667 800.282593 428.709534 802.67218 428.709534 C 805.061768 428.709534 806.99884 430.646667 806.99884 433.036255 Z"/>
    <path id="path12" fill="#3f3d56" stroke="none" d="M 725.325012 491.694275 L 687.015015 463.000244 L 649.228027 491.302246 L 648.362976 490.148254 L 687.015015 461.197266 L 725.143005 489.756287 L 763.031006 448.293274 L 763.184021 448.231262 L 801.403015 432.832275 L 801.942017 434.170288 L 763.875 449.50824 L 725.325012 491.694275 Z"/>
    <path id="path13" fill="#9f616a" stroke="none" d="M 434.628021 485.244629 C 431.667542 485.242432 428.858978 486.555298 426.962036 488.828247 L 382.152466 487.42749 L 380.39856 479.873169 L 357.209106 491.189453 L 360.209106 511.878601 L 428.49939 503.134705 C 431.950836 505.815979 436.744049 505.944153 440.333862 503.451111 C 443.923676 500.958069 445.477631 496.421936 444.170593 492.251404 C 442.863556 488.080811 438.998627 485.24292 434.628052 485.244629 Z"/>
    <path id="path14" fill="#9f616a" stroke="none" d="M 351.627014 797.844299 L 363.886993 797.844299 L 369.720001 750.556274 L 351.625 750.557251 L 351.627014 797.844299 Z"/>
    <path id="path15" fill="#2f2e41" stroke="none" d="M 348.500092 793.841858 L 372.644073 793.84082 L 372.645081 793.84082 C 381.142517 793.841309 388.030975 800.729675 388.031555 809.227051 L 388.031555 809.727051 L 348.500793 809.728516 Z"/>
    <path id="path16" fill="#9f616a" stroke="none" d="M 305.367004 788.095276 L 317.14502 791.499268 L 335.877014 747.68927 L 318.494019 742.66626 L 305.367004 788.095276 Z"/>
    <path id="path17" fill="#2f2e41" stroke="none" d="M 303.473602 783.381897 L 326.668701 790.084351 L 326.669647 790.084656 C 334.832855 792.444336 339.537994 800.974365 337.179321 809.137878 L 337.040497 809.618225 L 299.063507 798.644226 Z"/>
    <path id="path18" fill="#2f2e41" stroke="none" d="M 336.571808 592.50708 C 336.571808 592.50708 332.211151 604.673523 339.090302 621.273376 L 344.39856 689.64093 L 345.969452 786.87323 L 368.319824 786.87323 L 381.845978 687.75116 L 389.969452 597.87323 Z"/>
    <path id="path19" fill="#2f2e41" stroke="none" d="M 324.000885 592.50708 C 324.000885 592.50708 319.640228 604.673523 326.519379 621.273376 L 331.827637 689.64093 L 305.398529 782.244629 L 327.748932 782.244629 L 369.275055 687.75116 L 377.398529 597.873169 Z"/>
    <path id="path20" fill="#9f616a" stroke="none" d="M 414.128082 411.135986 C 414.128082 424.700684 403.131714 435.697021 389.567047 435.697021 C 376.00235 435.697021 365.006012 424.700684 365.006012 411.135986 C 365.006012 397.571289 376.00235 386.574951 389.567047 386.574951 C 403.131714 386.574951 414.128082 397.571289 414.128082 411.135986 Z"/>
    <path id="path21" fill="#cbcbcb" stroke="none" d="M 392.852234 470.880493 L 387.874908 447.753845 L 362.530609 433.363953 L 357.391357 440.558899 C 357.391357 440.558899 321.126862 450.088623 325.512695 491.730896 C 329.898529 533.37323 327.898529 553.37323 327.898529 553.37323 L 317.898529 599.37323 C 317.898529 599.37323 320.976746 599.901978 391.627991 612.24469 L 394.627991 512.244629 Z"/>
    <path id="path22" fill="#000000" stroke="none" opacity="0.1" d="M 368.265991 695.929321 L 345.251007 742.418274 L 345.251007 755.744263 L 368.265991 695.929321 Z"/>
    <path id="path23" fill="#2f2e41" stroke="none" d="M 363.085205 418.904724 C 365.427063 425.17627 374.288147 426.045288 377.413666 420.125183 C 377.656769 419.665771 377.854828 419.183838 378.005066 418.686218 C 378.861237 415.842712 378.322693 412.710266 379.903961 409.991455 C 380.289001 409.311218 380.84137 408.740601 381.508698 408.333618 C 386.764771 405.233459 391.938507 415.070557 396.826324 412.318359 C 399.823425 410.630737 399.182373 405.72998 401.849396 403.557983 C 405.369446 400.691345 410.453888 404.960876 414.967316 404.473328 C 419.989014 403.930908 422.365295 397.569336 421.273621 392.637817 C 419.9422 386.623657 415.23703 381.742188 409.715729 379.011169 C 404.194397 376.280212 397.920959 375.455566 391.763031 375.30249 C 384.766418 375.128601 377.44516 375.871277 371.529266 379.610901 C 364.334869 384.158691 360.281586 392.624939 359.384338 401.088806 C 358.838562 406.237488 361.172852 413.783386 363.085205 418.904724 Z"/>
    <path id="path24" fill="#3f3d56" stroke="none" d="M 483.440063 587.491333 C 483.476318 587.49176 483.51239 587.490967 483.548645 587.489075 C 521.954285 585.479919 552.190247 553.97644 552.621338 515.520752 C 553.052429 477.065002 523.530273 444.891602 485.179382 442.022034 C 484.717468 441.985779 484.261353 442.14386 483.920959 442.458252 C 483.581604 442.767273 483.38678 443.204041 483.383423 443.663025 L 481.789917 585.808044 C 481.781677 586.728149 482.519958 587.481201 483.440063 587.491333 Z"/>
    <path id="path25" fill="#e6e6e6" stroke="none" d="M 426.279419 465.526855 C 426.846863 465.533752 427.388519 465.765076 427.785828 466.170227 L 476.72052 516.214417 C 477.118103 516.618774 477.337402 517.165344 477.32959 517.7323 L 476.567017 585.749329 C 476.562683 586.339417 476.312134 586.900818 475.875793 587.298096 C 475.438354 587.700256 474.853882 587.903259 474.261292 587.858765 C 446.509705 585.78186 422.322632 568.181274 411.810181 542.41394 C 401.29776 516.646667 406.270233 487.149719 424.649109 466.252747 C 425.043243 465.806458 425.604919 465.543701 426.200104 465.527222 C 426.22641 465.526611 426.25296 465.52655 426.279419 465.526855 Z"/>
    <path id="path26" fill="#2254c5" stroke="none" d="M 476.03894 441.440979 C 476.585266 441.447571 477.108643 441.661499 477.503235 442.039368 C 477.931152 442.446655 478.169373 443.014221 478.160461 443.604919 L 477.472534 504.974121 C 477.462769 505.838196 476.933472 506.611389 476.131409 506.933167 C 475.329407 507.254883 474.412537 507.061951 473.808228 506.444153 L 431.10672 462.774414 C 430.7099 462.368103 430.490753 461.820801 430.497437 461.25293 C 430.50415 460.685059 430.736176 460.143066 431.142487 459.746277 C 431.168304 459.72113 431.194702 459.696655 431.22171 459.672791 C 443.640961 448.741272 459.384552 442.318665 475.906311 441.443604 C 475.950439 441.441345 475.994873 441.440552 476.03894 441.440979 Z"/>
    <path id="path27" fill="#9f616a" stroke="none" d="M 409.628021 513.244629 C 406.667542 513.242432 403.858978 514.555298 401.962036 516.828247 L 357.152466 515.42749 L 355.39856 507.873169 L 332.209106 519.189453 L 335.209106 539.878601 L 403.49939 531.134705 C 406.950836 533.815979 411.744049 533.944153 415.333862 531.451111 C 418.923676 528.958069 420.477631 524.421936 419.170593 520.251404 C 417.863556 516.080811 413.998627 513.24292 409.628052 513.244629 Z"/>
    <path id="path28" fill="#cbcbcb" stroke="none" d="M 328.431 527.71051 L 327.185394 466.077637 C 327.06665 460.208496 330.108978 454.727661 335.152832 451.724182 C 340.196686 448.720703 346.464935 448.657349 351.568481 451.558167 C 356.672058 454.459045 359.824585 459.877197 359.824554 465.747559 L 359.824554 510.790588 Z"/>
    <path id="path29" fill="#e6e6e6" stroke="none" d="M 286.504364 737.426392 C 286.504364 742.12085 278.669373 745.926392 269.004364 745.926392 C 259.339386 745.926392 251.504379 742.12085 251.504379 737.426392 C 251.504379 732.731995 259.339386 728.926392 269.004364 728.926392 C 278.669373 728.926392 286.504364 732.731995 286.504364 737.426392 Z"/>
    <path id="path30" fill="#e6e6e6" stroke="none" d="M 212.283676 811 L 211.332504 809.241211 C 224.085922 802.34375 239.958237 793.760193 248.24852 779.673828 C 256.420898 765.787598 256.604248 746.931152 248.727036 730.462891 C 242.023422 716.447266 229.709213 703.890625 213.115952 694.149902 C 209.842941 692.228516 206.407211 690.407715 203.084442 688.646484 C 195.052963 684.390137 186.748032 679.988281 179.900131 673.743652 C 170.468475 665.142578 163.332245 650.708984 168.651123 637.852539 C 172.219833 629.480774 180.240814 623.868774 189.328613 623.385254 L 189.441422 625.382324 C 181.115997 625.823914 173.766602 630.962463 170.493652 638.63031 C 165.551025 650.577576 172.332275 664.135193 181.247803 672.266052 C 187.908463 678.339783 196.099625 682.68103 204.021011 686.879333 C 207.362564 688.65033 210.81813 690.481873 214.128677 692.425232 C 231.067154 702.368591 243.655045 715.223083 250.531265 729.599548 C 258.691681 746.660095 258.47757 766.236267 249.972183 780.688416 C 241.399399 795.254395 225.2556 803.985352 212.283676 811 Z"/>
    <path id="path31" fill="#e6e6e6" stroke="none" d="M 219.504379 625.426392 C 219.504379 630.12085 211.669357 633.926392 202.004379 633.926392 C 192.339401 633.926392 184.504379 630.12085 184.504379 625.426392 C 184.504379 620.731995 192.339401 616.926392 202.004379 616.926392 C 211.669357 616.926392 219.504379 620.731995 219.504379 625.426392 Z"/>
    <path id="path32" fill="#e6e6e6" stroke="none" d="M 233.504379 681.426392 C 233.504379 686.12085 225.669357 689.926392 216.004379 689.926392 C 206.339401 689.926392 198.504379 686.12085 198.504379 681.426392 C 198.504379 676.731995 206.339401 672.926392 216.004379 672.926392 C 225.669357 672.926392 233.504379 676.731995 233.504379 681.426392 Z"/>
    <path id="path33" fill="#e6e6e6" stroke="none" d="M 201.504379 690.426392 C 201.504379 695.12085 193.669357 698.926392 184.004379 698.926392 C 174.339401 698.926392 166.504379 695.12085 166.504379 690.426392 C 166.504379 685.731995 174.339401 681.926392 184.004379 681.926392 C 193.669357 681.926392 201.504379 685.731995 201.504379 690.426392 Z"/>
    <path id="path34" fill="#e6e6e6" stroke="none" d="M 251.504379 737.426392 C 251.504379 742.12085 243.669357 745.926392 234.004379 745.926392 C 224.339386 745.926392 216.504379 742.12085 216.504379 737.426392 C 216.504379 732.731995 224.339386 728.926392 234.004379 728.926392 C 243.669357 728.926392 251.504379 732.731995 251.504379 737.426392 Z"/>
</svg>
